<svg width="100%" height="100%" viewBox="0 0 680 600" role="img" xmlns="http://www.w3.org/2000/svg">
<title>Zwixo Logo V4 — Timeless System</title>
<desc>Zwixo final logo system — minimal Z icon with hidden chat bubble negative space, saffron and ink palette</desc>

<!-- ══ SECTION 1: PRIMARY LOGO ══ -->
<!-- Master Z icon 76×76 · translate(148,91) → center Y=129 aligns with ZWIXO cap center 129 -->
<g transform="translate(148, 91)">
  <rect x="0" y="0" width="76" height="76" rx="18" fill="#1C1C1E"/>
  <rect x="14" y="16" width="48" height="10" rx="5" fill="#F5A623"/>
  <polygon points="52,26 62,26 24,50 14,50" fill="#F5A623"/>
  <rect x="14" y="50" width="48" height="10" rx="5" fill="#F5A623"/>
  <rect x="50" y="54" width="12" height="8" rx="2" fill="#1C1C1E"/>
  <polygon points="50,56 68,58 50,60" fill="#1C1C1E"/>
</g>

<!-- Wordmark: baseline y=152, cap top ≈106, cap center=129 → matches icon center -->
<text x="244" y="152" font-family="'Plus Jakarta Sans', sans-serif" font-weight="800" font-size="64" fill="#1C1C1E" letter-spacing="-2">ZWIXO</text>

<!-- Saffron accent dot · cx=353 = center of I (342→362) · cy=98 clears cap top(106) by 8px -->
<circle cx="353" cy="98" r="5" fill="#F5A623"/>

<!-- Tagline · letter-spacing=2 keeps text within 680px viewBox -->
<text x="244" y="174" font-family="'Plus Jakarta Sans', sans-serif" font-weight="500" font-size="11.5" fill="#F5A623" letter-spacing="2">SNAP IT · GLOW IT · DELIVER IT</text>

<!-- Sub label -->
<text x="244" y="192" font-family="'Plus Jakarta Sans', sans-serif" font-weight="400" font-size="11" fill="#8E8E93" letter-spacing="2">INDIA'S MEMORY &amp; CELEBRATION STUDIO</text>

<!-- ── DIVIDER ── -->
<line x1="60" y1="218" x2="620" y2="218" stroke="#E5E5EA" stroke-width="1"/>

<!-- ══ SECTION 2: B&W TEST ══ -->
<text x="340" y="242" font-family="'Plus Jakarta Sans', sans-serif" font-weight="700" font-size="11" fill="#8E8E93" text-anchor="middle" letter-spacing="3">BLACK &amp; WHITE TEST</text>

<!-- BW Z icon 56×56 · translate(196,241) → center Y=269 aligns with ZWIXO cap center 268.9 -->
<g transform="translate(196, 241)">
  <rect x="0" y="0" width="56" height="56" rx="13" fill="#1C1C1E"/>
  <rect x="10" y="12" width="35" height="7" rx="3" fill="#fff"/>
  <polygon points="38,19 45,19 17,37 10,37" fill="#fff"/>
  <rect x="10" y="37" width="35" height="7" rx="3" fill="#fff"/>
  <rect x="37" y="39" width="8" height="6" rx="2" fill="#1C1C1E"/>
  <polygon points="37,40 49,42 37,44" fill="#1C1C1E"/>
</g>

<!-- BW wordmark · icon bottom=297, ZWIXO baseline=284 (cap center 269), MEMORY at 302 (5px below icon) -->
<text x="262" y="284" font-family="'Plus Jakarta Sans', sans-serif" font-weight="800" font-size="42" fill="#1C1C1E" letter-spacing="-1">ZWIXO</text>
<text x="262" y="302" font-family="'Plus Jakarta Sans', sans-serif" font-weight="400" font-size="11" fill="#8E8E93" letter-spacing="2">MEMORY STUDIO</text>

<!-- Check circle · center y=269 aligns with wordmark cap center -->
<circle cx="496" cy="269" r="18" fill="#1C1C1E"/>
<polyline points="487,269 493,276 506,261" fill="none" stroke="#fff" stroke-width="2.5" stroke-linecap="round" stroke-linejoin="round"/>
<text x="496" y="302" font-family="'Plus Jakarta Sans', sans-serif" font-size="11" fill="#8E8E93" text-anchor="middle" letter-spacing="1">Works in B&amp;W ✓</text>

<!-- ── DIVIDER ── -->
<line x1="60" y1="324" x2="620" y2="324" stroke="#E5E5EA" stroke-width="1"/>

<!-- ══ SECTION 3: RESPONSIVE LOGO SYSTEM ══ -->
<text x="340" y="348" font-family="'Plus Jakarta Sans', sans-serif" font-weight="700" font-size="11" fill="#8E8E93" text-anchor="middle" letter-spacing="3">RESPONSIVE LOGO SYSTEM</text>

<!-- Cards centered: left margin=74, right margin=74 (symmetric in 680px viewBox)   -->
<!-- Gap between each card = 20px · total span = 74 to 606 = 532px                   -->

<!-- Card 1: Full Logo · 130×90 at x=74 -->
<rect x="74" y="360" width="130" height="90" rx="12" fill="#F2F2F7"/>
<!-- Mini Z 28×28 · translate(88,372): icon center Y=386 aligns with ZWIXO cap center 385.8 -->
<g transform="translate(88, 372)">
  <rect x="0" y="0" width="28" height="28" rx="7" fill="#1C1C1E"/>
  <rect x="5" y="6" width="18" height="4" rx="2" fill="#F5A623"/>
  <polygon points="19,10 23,10 9,18 5,18" fill="#F5A623"/>
  <rect x="5" y="18" width="18" height="4" rx="2" fill="#F5A623"/>
</g>
<!-- Text right of icon · x=124 (icon right=116, +8px gap) -->
<text x="124" y="387" font-family="'Plus Jakarta Sans', sans-serif" font-weight="800" font-size="20" fill="#1C1C1E">ZWIXO</text>
<text x="124" y="401" font-family="'Plus Jakarta Sans', sans-serif" font-weight="400" font-size="8" fill="#F5A623" letter-spacing="1.5">MEMORY STUDIO</text>
<text x="139" y="444" font-family="'Plus Jakarta Sans', sans-serif" font-weight="500" font-size="11" fill="#8E8E93" text-anchor="middle" letter-spacing="1">Full Logo</text>

<!-- Card 2: Icon Only · 90×90 at x=224 · Z 48×48 centered inside -->
<rect x="224" y="360" width="90" height="90" rx="12" fill="#F2F2F7"/>
<!-- Z center = card center (224+45=269, 360+45=405) · translate(245,381): center=(269,405) -->
<g transform="translate(245, 381)">
  <rect x="0" y="0" width="48" height="48" rx="11" fill="#1C1C1E"/>
  <rect x="9" y="10" width="30" height="6" rx="3" fill="#F5A623"/>
  <polygon points="33,16 39,16 15,32 9,32" fill="#F5A623"/>
  <rect x="9" y="32" width="30" height="6" rx="3" fill="#F5A623"/>
  <rect x="32" y="34" width="7" height="5" rx="2" fill="#1C1C1E"/>
  <polygon points="32,35 43,36 32,38" fill="#1C1C1E"/>
</g>
<text x="269" y="444" font-family="'Plus Jakarta Sans', sans-serif" font-weight="500" font-size="11" fill="#8E8E93" text-anchor="middle" letter-spacing="1">Icon Only</text>

<!-- Card 3: Monogram · 90×90 at x=334 -->
<rect x="334" y="360" width="90" height="90" rx="12" fill="#1C1C1E"/>
<!-- Z letter centered on x=379 (card center), cap center ≈ card center y=405 -->
<text x="379" y="416" font-family="'Plus Jakarta Sans', sans-serif" font-weight="800" font-size="46" fill="#F5A623" text-anchor="middle" letter-spacing="-2">Z</text>
<!-- Accent ring dot: top-right of card, 14px from right, 14px from top -->
<circle cx="414" cy="374" r="6" fill="#F5A623"/>
<circle cx="414" cy="374" r="2.5" fill="#1C1C1E"/>
<text x="379" y="444" font-family="'Plus Jakarta Sans', sans-serif" font-weight="500" font-size="11" fill="#8E8E93" text-anchor="middle" letter-spacing="1">Monogram</text>

<!-- Card 4: Social DP circle · 90×90 rx=45 at x=444 -->
<rect x="444" y="360" width="90" height="90" rx="45" fill="#F5A623"/>
<!-- Inverted Z 56-size · translate(461,377): Z center=(461+27.5,377+24.5)≈(489,402)≈circle center(489,405) -->
<g transform="translate(461, 377)">
  <rect x="10" y="12" width="35" height="7" rx="3" fill="#1C1C1E"/>
  <polygon points="38,19 45,19 17,37 10,37" fill="#1C1C1E"/>
  <rect x="10" y="37" width="35" height="7" rx="3" fill="#1C1C1E"/>
</g>
<text x="489" y="444" font-family="'Plus Jakarta Sans', sans-serif" font-weight="500" font-size="11" fill="#8E8E93" text-anchor="middle" letter-spacing="1">Social DP</text>

<!-- Card 5: Favicon · 52×52 at x=554 · proportionally-scaled Z -->
<g transform="translate(554, 360)">
  <rect x="0" y="0" width="52" height="52" rx="12" fill="#1C1C1E"/>
  <rect x="10" y="11" width="32" height="7" rx="3" fill="#F5A623"/>
  <polygon points="35,18 42,18 17,34 10,34" fill="#F5A623"/>
  <rect x="10" y="34" width="32" height="7" rx="3" fill="#F5A623"/>
  <rect x="34" y="36" width="8" height="6" rx="2" fill="#1C1C1E"/>
  <polygon points="34,37 46,39 34,41" fill="#1C1C1E"/>
</g>
<text x="580" y="444" font-family="'Plus Jakarta Sans', sans-serif" font-weight="500" font-size="11" fill="#8E8E93" text-anchor="middle" letter-spacing="1">Favicon</text>

<!-- ── DIVIDER ── -->
<line x1="60" y1="458" x2="620" y2="458" stroke="#E5E5EA" stroke-width="1"/>

<!-- ══ COLOR SYSTEM ══ -->
<text x="340" y="480" font-family="'Plus Jakarta Sans', sans-serif" font-weight="700" font-size="11" fill="#8E8E93" text-anchor="middle" letter-spacing="3">COLOR SYSTEM · 2 COLORS ONLY</text>

<!-- Two swatch groups centered symmetrically around x=340 -->
<!-- Group1 ends near x=330, Group2 starts near x=350 -->
<rect x="170" y="490" width="22" height="22" rx="6" fill="#1C1C1E"/>
<text x="198" y="501" font-family="'Plus Jakarta Sans', sans-serif" font-size="11" fill="#8E8E93">Ink Black  #1C1C1E</text>
<text x="198" y="514" font-family="'Plus Jakarta Sans', sans-serif" font-size="11" fill="#C7C7CC">Primary · Trust · Depth</text>

<rect x="362" y="490" width="22" height="22" rx="6" fill="#F5A623"/>
<text x="390" y="501" font-family="'Plus Jakarta Sans', sans-serif" font-size="11" fill="#8E8E93">Saffron Gold  #F5A623</text>
<text x="390" y="514" font-family="'Plus Jakarta Sans', sans-serif" font-size="11" fill="#C7C7CC">Accent · Indian · Celebration</text>

<!-- ══ HIDDEN MEANING NOTES ══ -->
<text x="340" y="548" font-family="'Plus Jakarta Sans', sans-serif" font-weight="400" font-size="11" fill="#8E8E93" text-anchor="middle" letter-spacing="1">✦  Z icon mein hidden chat bubble = WhatsApp-first brand  ✦</text>
<text x="340" y="566" font-family="'Plus Jakarta Sans', sans-serif" font-weight="400" font-size="11" fill="#8E8E93" text-anchor="middle" letter-spacing="1">✦  Saffron = India's most timeless celebration color  ✦</text>

</svg>
